<mxfile host="65bd71144e">
    <diagram id="AL-sN7tfACHJqSIeTNgF" name="PÃ¡gina-1">
        <mxGraphModel dx="808" dy="500" grid="1" gridSize="10" guides="1" tooltips="1" connect="1" arrows="1" fold="1" page="1" pageScale="1" pageWidth="827" pageHeight="1169" math="0" shadow="0">
            <root>
                <mxCell id="0"/>
                <mxCell id="1" parent="0"/>
                <mxCell id="2" value="Pool" style="swimlane;childLayout=stackLayout;resizeParent=1;resizeParentMax=0;startSize=20;" vertex="1" parent="1">
                    <mxGeometry x="230" y="20" width="360" height="480" as="geometry"/>
                </mxCell>
                <mxCell id="3" value="Lane 1" style="swimlane;startSize=20;" vertex="1" parent="2">
                    <mxGeometry y="20" width="120" height="460" as="geometry"/>
                </mxCell>
                <mxCell id="4" value="Lane 2" style="swimlane;startSize=20;" vertex="1" parent="2">
                    <mxGeometry x="120" y="20" width="120" height="460" as="geometry"/>
                </mxCell>
                <mxCell id="5" value="Lane 3" style="swimlane;startSize=20;" vertex="1" parent="2">
                    <mxGeometry x="240" y="20" width="120" height="460" as="geometry"/>
                </mxCell>
            </root>
        </mxGraphModel>
    </diagram>
</mxfile>